<?xml version="1.0" encoding="utf-8"?>
<!-- Generator: Adobe Illustrator 18.1.1, SVG Export Plug-In . SVG Version: 6.00 Build 0)  -->
<!DOCTYPE svg PUBLIC "-//W3C//DTD SVG 1.1//EN" "http://www.w3.org/Graphics/SVG/1.1/DTD/svg11.dtd" [
	<!ENTITY st0 "fill:#FFFFFF;">
]>
<svg version="1.1" id="レイヤー_1" xmlns="http://www.w3.org/2000/svg" xmlns:xlink="http://www.w3.org/1999/xlink" x="0px"
	 y="0px" viewBox="0 0 397.3 150" width="397" height="150" style="enable-background:new 0 0 397.3 150;" xml:space="preserve">
<g>
	<polygon style="&st0;" points="132,57 121.6,63 132,69 	"/>
</g>
<g>
	<polygon style="&st0;" points="198,87 218.8,75 198,63 	"/>
</g>
<path style="&st0;" d="M132,61.8v2.4c8.6,0,15.6,7,15.6,15.6c0,8.6-7,15.6-15.6,15.6v2.4c9.9,0,18-8.1,18-18S141.9,61.8,132,61.8z"
	/>
<g>
	<polygon style="&st0;" points="18,102.6 28.4,96.6 18,90.6 	"/>
</g>
<path style="&st0;" d="M18,97.8v-2.4c-8.6,0-15.6-7-15.6-15.6c0-8.6,7-15.6,15.6-15.6v-2.4c-9.9,0-18,8.1-18,18
	C0,89.7,8.1,97.8,18,97.8z"/>
<g>
	<path style="&st0;" d="M101.4,16.8c3.6,0,6.6,3,6.6,6.6v112.8c0,3.6-3,6.6-6.6,6.6H48.6c-3.6,0-6.6-3-6.6-6.6V23.4
		c0-3.6,3-6.6,6.6-6.6H101.4 M101.4,15.8H48.6c-4.2,0-7.6,3.4-7.6,7.6v112.8c0,4.2,3.4,7.6,7.6,7.6h52.8c4.2,0,7.6-3.4,7.6-7.6V23.4
		C109,19.2,105.6,15.8,101.4,15.8L101.4,15.8z"/>
</g>
<rect x="48" y="31.8" style="&st0;" width="54" height="96"/>
<g>
	<polygon style="&st0;" points="310.5,132 316.5,121.6 322.5,132 	"/>
</g>
<path style="&st0;" d="M315.3,132h2.4c0,8.6,7,15.6,15.6,15.6c8.6,0,15.6-7,15.6-15.6h2.4c0,9.9-8.1,18-18,18
	C323.4,150,315.3,141.9,315.3,132z"/>
<g>
	<polygon style="&st0;" points="356.1,18 350.1,28.4 344.1,18 	"/>
</g>
<path style="&st0;" d="M351.3,18h-2.4c0-8.6-7-15.6-15.6-15.6c-8.6,0-15.6,7-15.6,15.6h-2.4c0-9.9,8.1-18,18-18
	C343.3,0,351.3,8.1,351.3,18z"/>
<g>
	<path style="&st0;" d="M389.7,42c3.6,0,6.6,3,6.6,6.6v52.8c0,3.6-3,6.6-6.6,6.6H276.9c-3.6,0-6.6-3-6.6-6.6V48.6
		c0-3.6,3-6.6,6.6-6.6H389.7 M389.7,41H276.9c-4.2,0-7.6,3.4-7.6,7.6v52.8c0,4.2,3.4,7.6,7.6,7.6h112.8c4.2,0,7.6-3.4,7.6-7.6V48.6
		C397.3,44.4,393.9,41,389.7,41L389.7,41z"/>
</g>
<rect x="285.3" y="48" style="&st0;" width="96" height="54"/>
</svg>
